<?xml version="1.0" encoding="UTF-8" standalone="no"?>
<svg
   xmlns:dc="http://purl.org/dc/elements/1.1/"
   xmlns:cc="http://creativecommons.org/ns#"
   xmlns:rdf="http://www.w3.org/1999/02/22-rdf-syntax-ns#"
   xmlns:svg="http://www.w3.org/2000/svg"
   xmlns="http://www.w3.org/2000/svg"
   xmlns:sodipodi="http://sodipodi.sourceforge.net/DTD/sodipodi-0.dtd"
   xmlns:inkscape="http://www.inkscape.org/namespaces/inkscape"
   version="1.1"
   id="svg2"
   xml:space="preserve"
   width="226.80298"
   height="45"
   viewBox="0 0 226.80297 45.000002"
   sodipodi:docname="xai-studio-logo.svg"
   inkscape:version="1.0.2 (e86c870879, 2021-01-15)"
   inkscape:export-filename="/home/kilian/Documents/Ulm/Cloudstore/02_Big Data Analytics (Klier)/01_Praxis/XAI/Marketing/Website/XAI-Studio/xai-studio-logo-l.png"
   inkscape:export-xdpi="253.96492"
   inkscape:export-ydpi="253.96492"><metadata
     id="metadata8"><rdf:RDF><cc:Work
         rdf:about=""><dc:format>image/svg+xml</dc:format><dc:type
           rdf:resource="http://purl.org/dc/dcmitype/StillImage" /><dc:title></dc:title></cc:Work></rdf:RDF></metadata><defs
     id="defs6"><rect
       x="81.193054"
       y="205.18217"
       width="177.54523"
       height="40.904354"
       id="rect878" /><rect
       x="1005.7806"
       y="1421.201"
       width="922.64453"
       height="494.13229"
       id="rect872" /><rect
       x="396.36621"
       y="2172.939"
       width="2023.4902"
       height="550.31616"
       id="rect926" /><rect
       x="54.905819"
       y="178.18272"
       width="157.66008"
       height="41.864246"
       id="rect848" /><rect
       x="1027.0007"
       y="1454.9509"
       width="1760.3654"
       height="367.08389"
       id="rect842" /><clipPath
       clipPathUnits="userSpaceOnUse"
       id="clipPath26"><path
         d="m 368.75,1019.64 c -13.934,0.02 -27.812,-0.4 -39.562,-8.26 l -0.364,-0.05 c 1.489,-2.24 3.449,-5.03 5.586,-8.53 L 575.648,608.109 c 11.836,-19.371 11.852,-43.73 0.036,-63.117 l -246.532,-404.426 0.075,0.028 c 0,0 0.086,-0.047 0.246,-0.145 0.09,-0.051 0.187,-0.113 0.308,-0.179 0.121,-0.067 0.254,-0.149 0.418,-0.227 0.153,-0.086 0.328,-0.188 0.52,-0.297 0.187,-0.098 0.402,-0.207 0.625,-0.32 0.226,-0.121 0.469,-0.246 0.722,-0.371 0.262,-0.133 0.532,-0.27 0.817,-0.403 0.289,-0.132 0.597,-0.281 0.914,-0.429 0.16,-0.067 0.312,-0.145 0.48,-0.211 0.168,-0.082 0.336,-0.149 0.508,-0.231 0.176,-0.078 0.352,-0.144 0.524,-0.226 0.179,-0.082 0.363,-0.149 0.55,-0.227 0.18,-0.066 0.368,-0.148 0.563,-0.23 0.187,-0.078 0.383,-0.149 0.582,-0.227 0.195,-0.082 0.387,-0.16 0.598,-0.226 0.199,-0.082 0.406,-0.149 0.613,-0.227 0.211,-0.082 0.422,-0.148 0.637,-0.23 0.211,-0.067 0.421,-0.149 0.644,-0.227 0.215,-0.066 0.442,-0.137 0.664,-0.215 0.223,-0.066 0.449,-0.133 0.676,-0.215 0.227,-0.066 0.457,-0.148 0.687,-0.215 0.239,-0.066 0.473,-0.132 0.711,-0.199 0.258,-0.082 0.512,-0.164 0.774,-0.242 0.254,-0.066 0.515,-0.148 0.769,-0.227 0.262,-0.07 0.524,-0.136 0.782,-0.203 0.257,-0.066 0.515,-0.144 0.777,-0.199 0.258,-0.066 0.512,-0.137 0.766,-0.187 0.261,-0.055 0.515,-0.121 0.769,-0.176 0.254,-0.055 0.512,-0.102 0.758,-0.164 0.254,-0.047 0.508,-0.098 0.758,-0.149 0.246,-0.05 0.496,-0.09 0.742,-0.129 0.242,-0.05 0.488,-0.089 0.73,-0.132 0.243,-0.039 0.485,-0.079 0.715,-0.118 0.239,-0.043 0.473,-0.07 0.703,-0.113 0.239,-0.027 0.465,-0.066 0.692,-0.09 0.222,-0.027 0.441,-0.058 0.664,-0.078 0.222,-0.031 0.433,-0.058 0.648,-0.09 0.215,-0.019 0.418,-0.05 0.625,-0.058 0.407,-0.043 0.797,-0.082 1.172,-0.121 0.375,-0.032 0.731,-0.063 1.067,-0.082 0.332,-0.028 0.64,-0.059 0.937,-0.071 0.285,-0.027 0.555,-0.039 0.797,-0.047 0.238,0 0.461,-0.019 0.648,-0.031 0.188,0 0.356,-0.012 0.485,-0.012 0.261,-0.019 0.398,-0.019 0.398,-0.019 l -0.152,-0.02 h 110.312 32.371 c 22.969,0 44.293,11.922 56.317,31.5 l 234.203,381.2 c 11.879,19.332 11.902,43.687 0.074,63.05 L 560.32,988.094 c -11.968,19.596 -33.277,31.546 -56.246,31.546 h -108.445 -17.25 c -3.199,-0.03 -6.414,0 -9.629,0 z"
         id="path24" /></clipPath><rect
       x="54.905819"
       y="178.18272"
       width="157.66008"
       height="41.864246"
       id="rect848-3" /><rect
       x="54.905819"
       y="178.18272"
       width="157.66008"
       height="41.864246"
       id="rect861" /><rect
       x="54.905819"
       y="178.18272"
       width="157.66008"
       height="41.864246"
       id="rect848-3-7" /><rect
       x="54.905819"
       y="178.18272"
       width="157.66008"
       height="41.864246"
       id="rect896" /><rect
       x="81.193054"
       y="205.18217"
       width="494.69864"
       height="207.38477"
       id="rect878-3" /><rect
       x="81.193054"
       y="205.18217"
       width="177.54523"
       height="40.904354"
       id="rect891" /><rect
       x="81.193054"
       y="205.18217"
       width="494.69864"
       height="207.38477"
       id="rect878-3-7" /><rect
       x="81.193054"
       y="205.18217"
       width="494.69864"
       height="207.38477"
       id="rect937" /><rect
       x="81.193054"
       y="205.18217"
       width="494.69864"
       height="207.38477"
       id="rect878-3-3" /><rect
       x="81.193054"
       y="205.18217"
       width="494.69864"
       height="207.38477"
       id="rect982" /><rect
       x="81.193054"
       y="205.18217"
       width="494.69864"
       height="207.38477"
       id="rect878-3-2" /><rect
       x="81.193054"
       y="205.18217"
       width="494.69864"
       height="207.38477"
       id="rect1625" /></defs><sodipodi:namedview
     pagecolor="#ffffff"
     bordercolor="#666666"
     borderopacity="1"
     objecttolerance="10"
     gridtolerance="10"
     guidetolerance="10"
     inkscape:pageopacity="0"
     inkscape:pageshadow="2"
     inkscape:window-width="2560"
     inkscape:window-height="1403"
     id="namedview4"
     showgrid="false"
     inkscape:zoom="5.6314386"
     inkscape:cx="119.80113"
     inkscape:cy="75.059816"
     inkscape:window-x="0"
     inkscape:window-y="0"
     inkscape:window-maximized="1"
     inkscape:current-layer="g876"
     inkscape:document-rotation="0"
     fit-margin-top="0"
     fit-margin-left="0"
     fit-margin-right="0"
     fit-margin-bottom="0" /><g
     id="g10"
     inkscape:groupmode="layer"
     inkscape:label="main"
     transform="translate(26.742634,-49.853057)"><g
       id="g926"
       transform="matrix(0.44999938,0,0,0.44999938,657.90411,56.512703)"
       style="stroke-width:2.22221"><path
         d="m -1045.0417,33.377693 -11.2872,-18.504046 c -0.5547,-0.910873 -0.5547,-2.056055 0,-2.966928 l 14.1105,-23.148231 c 1.3468,-2.210122 3.7478,-3.557721 6.3351,-3.557721 h 3.8888 12.2228 c 1.2916,0 2.3397,1.047356 2.3397,2.339505 0,0.42974 -0.1183,0.851027 -0.3414,1.218216 l -27.2683,44.619205"
         style="fill:#1b3256;fill-opacity:1;fill-rule:nonzero;stroke:none;stroke-width:2.62898"
         id="path14" /><path
         d="m -1105.5795,81.481136 -26.0808,-42.786078 c -1.3322,-2.184537 -1.3304,-4.930339 0,-7.113526 l 26.0724,-42.664132 12.2073,20.0256611 -13.8353,22.6384709 c -1.3348,2.184538 -1.3411,4.930793 -0.016,7.120965 l 13.8238,22.858695 -12.1746,19.919944"
         style="fill:#568cb0;fill-opacity:1;fill-rule:nonzero;stroke:none;stroke-width:2.62898"
         id="path16" /><path
         d="m -1098.2868,85.2007 c -1.5704,0.0023 -3.1345,-0.04508 -4.4588,-0.930934 l -0.041,-0.0056 c 0.1678,-0.252457 0.3887,-0.566899 0.6296,-0.961364 l 27.1884,-44.483171 c 1.334,-2.183185 1.3358,-4.928537 0,-7.113524 l -27.7851,-45.580345 0.01,0.0032 c 0,0 0.01,-0.0053 0.028,-0.01634 0.01,-0.0057 0.021,-0.01274 0.035,-0.02017 0.014,-0.0076 0.029,-0.01679 0.047,-0.02558 0.017,-0.0097 0.037,-0.02119 0.059,-0.03347 0.021,-0.01105 0.045,-0.02333 0.07,-0.03607 0.025,-0.01364 0.053,-0.02773 0.081,-0.04181 0.03,-0.01499 0.06,-0.03043 0.092,-0.04542 0.033,-0.01488 0.067,-0.03167 0.103,-0.04835 0.018,-0.0076 0.035,-0.01634 0.054,-0.02378 0.019,-0.0092 0.038,-0.01679 0.057,-0.02604 0.02,-0.0088 0.04,-0.01623 0.059,-0.02547 0.02,-0.0092 0.041,-0.01679 0.062,-0.02558 0.02,-0.0074 0.041,-0.01668 0.063,-0.02592 0.021,-0.0088 0.043,-0.01679 0.066,-0.02558 0.022,-0.0092 0.044,-0.01803 0.067,-0.02547 0.022,-0.0092 0.046,-0.01679 0.069,-0.02558 0.024,-0.0092 0.048,-0.01668 0.072,-0.02592 0.024,-0.0076 0.047,-0.01679 0.073,-0.02558 0.024,-0.0074 0.05,-0.01544 0.075,-0.02423 0.025,-0.0074 0.051,-0.01499 0.076,-0.02423 0.026,-0.0074 0.052,-0.01668 0.077,-0.02423 0.027,-0.0074 0.053,-0.01488 0.08,-0.02243 0.029,-0.0092 0.058,-0.01848 0.087,-0.02727 0.029,-0.0074 0.058,-0.01668 0.087,-0.02558 0.03,-0.0079 0.059,-0.01533 0.088,-0.02288 0.029,-0.0074 0.058,-0.01623 0.088,-0.02243 0.029,-0.0074 0.058,-0.01544 0.086,-0.02108 0.029,-0.0062 0.058,-0.01364 0.087,-0.01984 0.029,-0.0062 0.058,-0.0115 0.085,-0.01848 0.029,-0.0053 0.057,-0.01104 0.085,-0.01679 0.028,-0.0056 0.056,-0.01014 0.084,-0.01454 0.027,-0.0056 0.055,-0.01003 0.082,-0.01488 0.027,-0.0044 0.055,-0.0089 0.081,-0.0133 0.027,-0.0048 0.053,-0.0079 0.079,-0.01273 0.027,-0.003 0.052,-0.0074 0.078,-0.01014 0.025,-0.003 0.05,-0.0065 0.075,-0.0088 0.025,-0.0035 0.049,-0.0065 0.073,-0.01014 0.024,-0.0021 0.047,-0.0056 0.07,-0.0065 0.046,-0.0048 0.09,-0.0092 0.1321,-0.01364 0.042,-0.0036 0.082,-0.0071 0.1203,-0.0092 0.037,-0.0032 0.072,-0.0066 0.1056,-0.008 0.032,-0.003 0.062,-0.0044 0.09,-0.0053 0.027,0 0.052,-0.0021 0.073,-0.0035 0.021,0 0.04,-0.0013 0.055,-0.0013 0.029,-0.0021 0.045,-0.0021 0.045,-0.0021 l -0.017,-0.0023 h 12.4326 3.6483 c 2.5887,0 4.992,1.343654 6.3472,3.550169 l 26.3956,42.962665 c 1.3388,2.178791 1.3414,4.923691 0.01,7.105975 l -26.1715,42.82575 c -1.3489,2.208543 -3.7505,3.555354 -6.3392,3.555354 h -12.2221 -1.9442 c -0.3605,-0.0034 -0.7228,0 -1.0852,0 v 0"
         style="fill:#1b3256;fill-opacity:1;fill-rule:nonzero;stroke:none;stroke-width:2.62898"
         id="path18" /><path
         d="m -1045.0417,37.023435 -11.2872,18.504048 c -0.5547,0.911321 -0.5547,2.056055 0,2.966926 l 14.1105,23.148231 c 1.3468,2.210123 3.7478,3.55806 6.3351,3.55806 h 3.8888 12.2228 c 1.2916,0 2.3397,-1.047019 2.3397,-2.339843 0,-0.42974 -0.1183,-0.851027 -0.3414,-1.218217 l -27.2683,-44.619205"
         style="fill:#1b3256;fill-opacity:1;fill-rule:nonzero;stroke:none;stroke-width:2.62898"
         id="path30" /></g><g
       id="g876"
       transform="translate(0,0.7995057)"><g
         aria-label="-Studio"
         transform="matrix(0.71724138,0,0,0.71724138,-32.561872,-94.07088)"
         id="text876-6"
         style="font-style:normal;font-weight:normal;font-size:48.7981px;line-height:1;font-family:sans-serif;white-space:pre;shape-inside:url(#rect878-3);fill:#1b3256;fill-opacity:1;stroke:none;stroke-width:1.39423"><path
           d="m 83.389274,232.96403 q -0.487981,0 -0.487981,-0.48799 v -3.07428 q 0,-0.48798 0.487981,-0.48798 h 15.078613 q 0.487981,0 0.487981,0.48798 v 3.07428 q 0,0.48799 -0.487981,0.48799 z"
           style="font-style:normal;font-variant:normal;font-weight:500;font-stretch:normal;font-size:48.7981px;font-family:Barlow;-inkscape-font-specification:'Barlow Medium';fill:#1b3256;stroke-width:1.39423"
           id="path883" /><path
           d="m 115.25441,246.23711 q -3.75745,0 -6.53894,-1.17116 -2.7327,-1.17115 -4.24544,-3.31827 -1.46394,-2.14711 -1.46394,-5.0262 v -1.41515 q 0,-0.48798 0.48798,-0.48798 h 3.56226 q 0.48798,0 0.48798,0.48798 v 1.17116 q 0,2.4887 2.14712,4.09904 2.14712,1.61034 5.90457,1.61034 3.36707,0 5.075,-1.41515 1.70794,-1.41514 1.70794,-3.70865 0,-1.51275 -0.87837,-2.5863 -0.87837,-1.07356 -2.5863,-1.95193 -1.65913,-0.92716 -4.87981,-2.19591 -3.56226,-1.36635 -5.66058,-2.48871 -2.04952,-1.12235 -3.41587,-2.92788 -1.36634,-1.85433 -1.36634,-4.63582 0,-4.19664 2.97668,-6.58774 3.02548,-2.39111 8.14928,-2.39111 3.61106,0 6.34376,1.21995 2.73269,1.21995 4.19663,3.41587 1.51274,2.19591 1.51274,5.075 v 0.97596 q 0,0.48798 -0.48798,0.48798 h -3.65985 q -0.48798,0 -0.48798,-0.48798 v -0.73197 q 0,-2.5375 -2.04952,-4.19664 -2.00073,-1.70793 -5.56299,-1.70793 -3.02548,0 -4.68462,1.26875 -1.65913,1.21995 -1.65913,3.56226 0,1.61034 0.82957,2.6351 0.82956,1.02476 2.4399,1.85433 1.65914,0.78077 5.02621,2.04952 3.46466,1.36635 5.61178,2.5375 2.14711,1.12236 3.56226,3.02548 1.41514,1.85433 1.41514,4.63582 0,4.29423 -3.17187,6.83174 -3.12308,2.4887 -8.63727,2.4887 z"
           style="font-style:normal;font-variant:normal;font-weight:500;font-stretch:normal;font-size:48.7981px;font-family:Barlow;-inkscape-font-specification:'Barlow Medium';fill:#1b3256;stroke-width:1.39423"
           id="path885" /><path
           d="m 145.07002,224.37556 q 0,0.48798 -0.48798,0.48798 h -5.2702 q -0.19519,0 -0.19519,0.19519 v 12.9315 q 0,2.04952 0.92717,2.97668 0.92716,0.87837 2.87908,0.87837 h 1.41515 q 0.48798,0 0.48798,0.48798 v 3.02548 q 0,0.48798 -0.48798,0.48798 -1.56154,0.0976 -2.24471,0.0976 -3.70866,0 -5.61179,-1.31755 -1.85432,-1.36635 -1.85432,-4.97741 v -14.59063 q 0,-0.19519 -0.1952,-0.19519 h -2.97668 q -0.48798,0 -0.48798,-0.48798 v -2.87909 q 0,-0.48798 0.48798,-0.48798 h 2.97668 q 0.1952,0 0.1952,-0.19519 v -5.75818 q 0,-0.48798 0.48798,-0.48798 h 3.51346 q 0.48798,0 0.48798,0.48798 v 5.75818 q 0,0.19519 0.19519,0.19519 h 5.2702 q 0.48798,0 0.48798,0.48798 z"
           style="font-style:normal;font-variant:normal;font-weight:500;font-stretch:normal;font-size:48.7981px;font-family:Barlow;-inkscape-font-specification:'Barlow Medium';fill:#1b3256;stroke-width:1.39423"
           id="path887" /><path
           d="m 165.614,221.49647 q 0,-0.48798 0.48798,-0.48798 h 3.65986 q 0.48798,0 0.48798,0.48798 v 23.86227 q 0,0.48798 -0.48798,0.48798 h -3.65986 q -0.48798,0 -0.48798,-0.48798 v -1.80553 q 0,-0.0976 -0.0976,-0.0976 -0.0488,-0.0488 -0.14639,0.0488 -1.95193,2.6839 -6.00217,2.6839 -2.3911,0 -4.44062,-0.92716 -2.00073,-0.92717 -3.22068,-2.7327 -1.21995,-1.80553 -1.21995,-4.39183 v -16.64015 q 0,-0.48798 0.48798,-0.48798 h 3.65986 q 0.48798,0 0.48798,0.48798 v 15.17621 q 0,2.5375 1.31755,4.00145 1.36634,1.46394 3.80625,1.46394 2.4399,0 3.90385,-1.46394 1.46394,-1.51275 1.46394,-4.00145 z"
           style="font-style:normal;font-variant:normal;font-weight:500;font-stretch:normal;font-size:48.7981px;font-family:Barlow;-inkscape-font-specification:'Barlow Medium';fill:#1b3256;stroke-width:1.39423"
           id="path889" /><path
           d="m 192.50166,212.17603 q 0,-0.48798 0.48798,-0.48798 h 3.70866 q 0.48798,0 0.48798,0.48798 v 33.18271 q 0,0.48798 -0.48798,0.48798 h -3.70866 q -0.48798,0 -0.48798,-0.48798 v -1.61033 q 0,-0.0976 -0.0976,-0.1464 -0.0488,-0.0488 -0.1464,0.0488 -1.07356,1.21995 -2.5375,1.90312 -1.46394,0.68318 -3.17188,0.68318 -3.51346,0 -5.85577,-1.70794 -2.29351,-1.75673 -3.36707,-4.9286 -0.92716,-2.5863 -0.92716,-6.24616 0,-3.41587 0.78077,-5.90457 1.02476,-3.22067 3.36707,-5.0262 2.34231,-1.80553 6.00216,-1.80553 1.65914,0 3.12308,0.68317 1.51274,0.63437 2.5863,1.85433 0.0976,0.0976 0.1464,0.0488 0.0976,-0.0488 0.0976,-0.1464 z m -1.21995,27.37574 q 1.12236,-2.04952 1.12236,-6.14856 0,-4.09904 -1.21996,-6.24616 -1.41514,-2.4887 -4.14783,-2.4887 -2.92789,0 -4.34304,2.34231 -1.56153,2.4399 -1.56153,6.44135 0,3.75745 1.21995,6.05096 1.41514,2.6839 4.63582,2.6839 2.83029,0 4.29423,-2.6351 z"
           style="font-style:normal;font-variant:normal;font-weight:500;font-stretch:normal;font-size:48.7981px;font-family:Barlow;-inkscape-font-specification:'Barlow Medium';fill:#1b3256;stroke-width:1.39423"
           id="path891" /><path
           d="m 206.89707,217.10464 q -1.36634,0 -2.24471,-0.87836 -0.87836,-0.87837 -0.87836,-2.24472 0,-1.36634 0.87836,-2.24471 0.87837,-0.87836 2.24471,-0.87836 1.36635,0 2.24472,0.87836 0.87836,0.87837 0.87836,2.24471 0,1.36635 -0.87836,2.24472 -0.87837,0.87836 -2.24472,0.87836 z m -1.95192,28.69329 q -0.48798,0 -0.48798,-0.48799 v -23.81347 q 0,-0.48798 0.48798,-0.48798 h 3.70866 q 0.48798,0 0.48798,0.48798 v 23.81347 q 0,0.48799 -0.48798,0.48799 z"
           style="font-style:normal;font-variant:normal;font-weight:500;font-stretch:normal;font-size:48.7981px;font-family:Barlow;-inkscape-font-specification:'Barlow Medium';fill:#1b3256;stroke-width:1.39423"
           id="path893" /><path
           d="m 226.66026,246.23711 q -3.61106,0 -6.29495,-1.80553 -2.6839,-1.85433 -3.75746,-5.1238 -0.87836,-2.6351 -0.87836,-5.95337 0,-3.46466 0.82957,-5.85577 1.07355,-3.22068 3.75745,-5.02621 2.6839,-1.85432 6.39255,-1.85432 3.51346,0 6.09976,1.85432 2.6351,1.80553 3.75746,4.97741 0.87836,2.4887 0.87836,5.85577 0,3.41587 -0.87836,6.00217 -1.07356,3.26947 -3.70866,5.1238 -2.6351,1.80553 -6.19736,1.80553 z m 0,-4.05024 q 1.95193,0 3.41587,-1.07356 1.46394,-1.12236 2.09832,-3.12308 0.53678,-1.85433 0.53678,-4.58702 0,-2.7327 -0.48798,-4.53823 -0.63438,-2.00072 -2.09832,-3.07428 -1.46395,-1.12235 -3.56226,-1.12235 -2.00073,0 -3.46467,1.12235 -1.46394,1.07356 -2.09832,3.07428 -0.53678,1.70794 -0.53678,4.53823 0,2.83029 0.53678,4.58702 0.58558,2.00072 2.04952,3.12308 1.51274,1.07356 3.61106,1.07356 z"
           style="font-style:normal;font-variant:normal;font-weight:500;font-stretch:normal;font-size:48.7981px;font-family:Barlow;-inkscape-font-specification:'Barlow Medium';fill:#1b3256;stroke-width:1.39423"
           id="path895" /></g><g
         aria-label="XAI"
         transform="matrix(0.51428448,0,0,0.51428571,-69.665783,-52.585599)"
         id="text876-6-9"
         style="font-style:normal;font-weight:normal;font-size:68.0556px;line-height:1;font-family:sans-serif;white-space:pre;shape-inside:url(#rect878-3-2);fill:#1b3256;fill-opacity:1;stroke:none;stroke-width:1.94443"><path
           d="m 84.187806,261.89464 q -0.476389,0 -0.680556,-0.20416 -0.136111,-0.27223 0.136111,-0.74862 l 13.543065,-22.66251 q 0.136111,-0.20417 0,-0.40833 L 83.643361,215.2085 q -0.136111,-0.40833 -0.136111,-0.47639 0,-0.47639 0.680556,-0.47639 h 6.80556 q 0.748612,0 1.020834,0.54445 l 9.93612,16.87779 q 0.20417,0.40833 0.40833,0 l 10.00418,-16.87779 q 0.27222,-0.54445 0.95277,-0.54445 h 6.80556 q 0.47639,0 0.6125,0.27222 0.20417,0.20417 -0.068,0.68056 l -13.54307,22.66252 q -0.068,0.20416 0,0.40833 l 13.54307,22.66251 q 0.13611,0.40834 0.13611,0.47639 0,0.47639 -0.68056,0.47639 h -6.80556 q -0.68055,0 -0.95277,-0.54444 l -10.00418,-16.80974 q -0.20416,-0.40833 -0.40833,0 L 91.946145,261.3502 q -0.272223,0.54444 -0.952779,0.54444 z"
           style="font-style:normal;font-variant:normal;font-weight:600;font-stretch:normal;font-size:68.0556px;font-family:Barlow;-inkscape-font-specification:'Barlow Semi-Bold';fill:#1b3256"
           id="path898" /><path
           d="m 157.61975,261.89464 q -0.68056,0 -0.88472,-0.68055 l -2.24584,-7.28195 q -0.13611,-0.27222 -0.34028,-0.27222 h -17.96668 q -0.20416,0 -0.34027,0.27222 l -2.24584,7.28195 q -0.20417,0.68055 -0.88472,0.68055 h -6.80556 q -0.40834,0 -0.6125,-0.20416 -0.20417,-0.27223 -0.0681,-0.74862 l 14.76807,-46.00558 q 0.20416,-0.68056 0.88472,-0.68056 h 8.50695 q 0.68056,0 0.88472,0.68056 l 14.83613,46.00558 q 0.068,0.13612 0.068,0.34028 0,0.6125 -0.74861,0.6125 z m -19.66807,-14.83612 q -0.0681,0.40834 0.27222,0.40834 h 13.81529 q 0.40833,0 0.27222,-0.40834 l -7.00972,-22.79863 q -0.0681,-0.27222 -0.20417,-0.27222 -0.13611,0 -0.20417,0.27222 z"
           style="font-style:normal;font-variant:normal;font-weight:600;font-stretch:normal;font-size:68.0556px;font-family:Barlow;-inkscape-font-specification:'Barlow Semi-Bold';fill:#1b3256"
           id="path900" /><path
           d="m 173.00023,261.89464 q -0.34027,0 -0.6125,-0.20416 -0.20416,-0.27223 -0.20416,-0.6125 v -46.00559 q 0,-0.34028 0.20416,-0.54445 0.27223,-0.27222 0.6125,-0.27222 h 6.26112 q 0.34028,0 0.54444,0.27222 0.27223,0.20417 0.27223,0.54445 v 46.00559 q 0,0.34027 -0.27223,0.6125 -0.20416,0.20416 -0.54444,0.20416 z"
           style="font-style:normal;font-variant:normal;font-weight:600;font-stretch:normal;font-size:68.0556px;font-family:Barlow;-inkscape-font-specification:'Barlow Semi-Bold';fill:#1b3256"
           id="path902" /></g></g></g></svg>
