<?xml version="1.0" encoding="UTF-8" standalone="no"?>
<!-- Created with Inkscape (http://www.inkscape.org/) -->

<svg
   version="1.1"
   id="svg2"
   xml:space="preserve"
   width="453.54666"
   height="207.88"
   viewBox="0 0 453.54666 207.88"
   xmlns="http://www.w3.org/2000/svg"
   xmlns:svg="http://www.w3.org/2000/svg"><defs
     id="defs6"><clipPath
       clipPathUnits="userSpaceOnUse"
       id="clipPath24"><path
         d="m 548.449,1505.2 c -22.789,0.04 -45.496,-0.65 -64.715,-13.52 l -0.589,-0.07 c 2.429,-3.66 5.64,-8.23 9.136,-13.95 L 886.875,832.055 c 19.363,-31.684 19.387,-71.532 0.055,-103.239 L 483.68,67.2891 l 0.121,0.0507 c 0,0 0.144,-0.0781 0.406,-0.2382 0.141,-0.0821 0.309,-0.1797 0.504,-0.293 0.195,-0.1094 0.414,-0.2383 0.68,-0.3672 0.25,-0.1523 0.535,-0.3125 0.851,-0.4922 0.309,-0.1601 0.66,-0.3398 1.024,-0.5195 0.371,-0.1992 0.765,-0.4102 1.179,-0.6094 0.43,-0.2187 0.868,-0.4414 1.34,-0.6601 0.469,-0.2188 0.973,-0.461 1.488,-0.6993 0.262,-0.1093 0.516,-0.2421 0.79,-0.3515 0.273,-0.1289 0.546,-0.2383 0.832,-0.3711 0.285,-0.1289 0.57,-0.2383 0.855,-0.3672 0.297,-0.1406 0.594,-0.2422 0.898,-0.3828 0.297,-0.1094 0.606,-0.2383 0.922,-0.3672 0.305,-0.1328 0.625,-0.2422 0.953,-0.3711 0.317,-0.1289 0.633,-0.2695 0.973,-0.3711 0.332,-0.1406 0.672,-0.2383 1.012,-0.3789 0.34,-0.1289 0.687,-0.2383 1.039,-0.3711 0.34,-0.1094 0.691,-0.2383 1.051,-0.3672 0.351,-0.1133 0.722,-0.2226 1.086,-0.3515 0.363,-0.1094 0.734,-0.2188 1.105,-0.3516 0.375,-0.1094 0.746,-0.2383 1.129,-0.3477 0.383,-0.1093 0.77,-0.2226 1.164,-0.332 0.414,-0.1289 0.832,-0.2695 1.258,-0.3984 0.418,-0.1094 0.844,-0.2422 1.262,-0.3711 0.425,-0.1094 0.851,-0.2188 1.281,-0.3281 0.418,-0.1094 0.844,-0.2422 1.269,-0.3321 0.418,-0.1094 0.832,-0.2187 1.25,-0.3008 0.426,-0.0898 0.844,-0.1992 1.262,-0.289 0.414,-0.0899 0.832,-0.168 1.238,-0.2578 0.414,-0.0899 0.832,-0.1797 1.239,-0.2422 0.406,-0.0899 0.808,-0.1602 1.214,-0.2188 0.395,-0.0898 0.801,-0.1601 1.196,-0.2187 0.394,-0.0703 0.789,-0.1328 1.172,-0.2031 0.382,-0.0586 0.765,-0.1094 1.148,-0.168 0.387,-0.0508 0.758,-0.1094 1.133,-0.1602 0.359,-0.039 0.723,-0.0898 1.082,-0.1289 0.363,-0.0429 0.715,-0.0898 1.062,-0.1328 0.352,-0.0391 0.68,-0.0898 1.02,-0.1094 0.668,-0.0703 1.305,-0.1289 1.918,-0.1992 0.613,-0.039 1.195,-0.082 1.742,-0.1289 0.547,-0.043 1.055,-0.0898 1.535,-0.1094 0.473,-0.0429 0.91,-0.0625 1.305,-0.0937 0.395,0 0.754,-0.0195 1.062,-0.0391 0.305,0 0.579,-0.0195 0.79,-0.0195 0.425,-0.0195 0.656,-0.0195 0.656,-0.0195 l -0.25,-0.0508 h 180.437 52.946 c 37.574,0 72.453,19.5117 92.121,51.5316 l 383.09,623.535 c 19.42,31.617 19.47,71.461 0.12,103.129 L 861.805,1453.6 c -19.582,32.05 -54.438,51.6 -92,51.6 H 592.414 564.195 c -5.226,-0.06 -10.484,0 -15.746,0 z"
         id="path22" /></clipPath></defs><g
     id="g8"
     transform="matrix(1.3333333,0,0,-1.3333333,0,207.88)"><g
       id="g10"
       transform="scale(0.1)"><g
         id="g1201"><path
           d="M 1321.21,753.074 1157.4,484.52 c -8.05,-13.219 -8.05,-29.84 0,-43.059 L 1362.19,105.5 c 19.55,-32.0703 54.39,-51.6406 91.94,-51.6406 h 56.45 177.39 c 18.75,0 33.95,15.2109 33.95,33.9726 0,6.2266 -1.72,12.348 -4.96,17.668 l -395.75,647.574"
           style="fill:#1b3256;fill-opacity:1;fill-rule:nonzero;stroke:none"
           id="path12" /><path
           d="M 442.605,1451.22 64.0859,830.25 C 44.7578,798.543 44.7773,758.688 64.1406,727.012 L 442.539,107.809 619.703,398.441 418.91,727.012 c -19.371,31.699 -19.461,71.554 -0.238,103.347 l 200.633,331.751 -176.7,289.11"
           style="fill:#568cb0;fill-opacity:1;fill-rule:nonzero;stroke:none"
           id="path14" /><path
           d="m 548.449,1505.2 c -22.789,0.04 -45.496,-0.65 -64.715,-13.52 l -0.589,-0.07 c 2.429,-3.66 5.64,-8.23 9.136,-13.95 L 886.875,832.055 c 19.363,-31.684 19.387,-71.532 0.055,-103.239 L 483.68,67.2891 l 0.121,0.0507 c 0,0 0.144,-0.0781 0.406,-0.2382 0.141,-0.0821 0.309,-0.1797 0.504,-0.293 0.195,-0.1094 0.414,-0.2383 0.68,-0.3672 0.25,-0.1523 0.535,-0.3125 0.851,-0.4922 0.309,-0.1601 0.66,-0.3398 1.024,-0.5195 0.371,-0.1992 0.765,-0.4102 1.179,-0.6094 0.43,-0.2187 0.868,-0.4414 1.34,-0.6601 0.469,-0.2188 0.973,-0.461 1.488,-0.6993 0.262,-0.1093 0.516,-0.2421 0.79,-0.3515 0.273,-0.1289 0.546,-0.2383 0.832,-0.3711 0.285,-0.1289 0.57,-0.2383 0.855,-0.3672 0.297,-0.1406 0.594,-0.2422 0.898,-0.3828 0.297,-0.1094 0.606,-0.2383 0.922,-0.3672 0.305,-0.1328 0.625,-0.2422 0.953,-0.3711 0.317,-0.1289 0.633,-0.2695 0.973,-0.3711 0.332,-0.1406 0.672,-0.2383 1.012,-0.3789 0.34,-0.1289 0.687,-0.2383 1.039,-0.3711 0.34,-0.1094 0.691,-0.2383 1.051,-0.3672 0.351,-0.1133 0.722,-0.2226 1.086,-0.3515 0.363,-0.1094 0.734,-0.2188 1.105,-0.3516 0.375,-0.1094 0.746,-0.2383 1.129,-0.3477 0.383,-0.1093 0.77,-0.2226 1.164,-0.332 0.414,-0.1289 0.832,-0.2695 1.258,-0.3984 0.418,-0.1094 0.844,-0.2422 1.262,-0.3711 0.425,-0.1094 0.851,-0.2188 1.281,-0.3281 0.418,-0.1094 0.844,-0.2422 1.269,-0.3321 0.418,-0.1094 0.832,-0.2187 1.25,-0.3008 0.426,-0.0898 0.844,-0.1992 1.262,-0.289 0.414,-0.0899 0.832,-0.168 1.238,-0.2578 0.414,-0.0899 0.832,-0.1797 1.239,-0.2422 0.406,-0.0899 0.808,-0.1602 1.214,-0.2188 0.395,-0.0898 0.801,-0.1601 1.196,-0.2187 0.394,-0.0703 0.789,-0.1328 1.172,-0.2031 0.382,-0.0586 0.765,-0.1094 1.148,-0.168 0.387,-0.0508 0.758,-0.1094 1.133,-0.1602 0.359,-0.039 0.723,-0.0898 1.082,-0.1289 0.363,-0.0429 0.715,-0.0898 1.062,-0.1328 0.352,-0.0391 0.68,-0.0898 1.02,-0.1094 0.668,-0.0703 1.305,-0.1289 1.918,-0.1992 0.613,-0.039 1.195,-0.082 1.742,-0.1289 0.547,-0.043 1.055,-0.0898 1.535,-0.1094 0.473,-0.0429 0.91,-0.0625 1.305,-0.0937 0.395,0 0.754,-0.0195 1.062,-0.0391 0.305,0 0.579,-0.0195 0.79,-0.0195 0.425,-0.0195 0.656,-0.0195 0.656,-0.0195 l -0.25,-0.0508 h 180.437 52.946 c 37.574,0 72.453,19.5117 92.121,51.5316 l 383.09,623.535 c 19.42,31.617 19.47,71.461 0.12,103.129 L 861.805,1453.6 c -19.582,32.05 -54.438,51.6 -92,51.6 H 592.414 564.195 c -5.226,-0.06 -10.484,0 -15.746,0 v 0"
           style="fill:#1b3256;fill-opacity:1;fill-rule:nonzero;stroke:none"
           id="path16" /><g
           id="g18"><g
             id="g20"
             clip-path="url(#clipPath24)"><path
               d="M 483.145,53.8594 V 1505.24 H 1260.99 V 53.8594 H 483.145"
               style="fill:#1b3256;fill-opacity:1;fill-rule:nonzero;stroke:none"
               id="path26" /></g></g><path
           d="M 1321.21,805.988 1157.4,1074.55 c -8.05,13.22 -8.05,29.83 0,43.06 l 204.79,335.95 c 19.55,32.08 54.39,51.64 91.94,51.64 h 56.45 177.39 c 18.75,0 33.95,-15.2 33.95,-33.96 0,-6.24 -1.72,-12.35 -4.96,-17.68 L 1321.21,805.988"
           style="fill:#1b3256;fill-opacity:1;fill-rule:nonzero;stroke:none"
           id="path28" /><path
           d="m 1975.63,700.5 h 77.96 c 4.37,0 8.13,2.188 11.27,6.574 l 151.22,247.969 c 0.62,1.246 1.56,1.879 2.82,1.879 1.25,0 2.19,-0.633 2.82,-1.879 l 151.22,-247.969 c 3.13,-4.386 6.88,-6.574 11.27,-6.574 h 77.02 c 5.64,0 8.45,1.879 8.45,5.637 0,1.246 -0.63,3.125 -1.88,5.636 l -192.54,313.717 c -0.64,1.87 -0.64,3.75 0,5.63 l 192.54,315.59 c 1.88,3.13 2.19,5.79 0.94,7.99 -1.26,2.19 -3.75,3.28 -7.51,3.28 h -77.02 c -4.39,0 -8.14,-2.19 -11.27,-6.57 l -151.22,-248.9 c -0.63,-0.63 -1.57,-0.94 -2.82,-0.94 -1.26,0 -2.2,0.31 -2.82,0.94 l -151.22,248.9 c -3.14,4.38 -6.9,6.57 -11.27,6.57 h -77.96 c -5.64,0 -8.45,-1.87 -8.45,-5.63 0,-1.26 0.61,-3.14 1.88,-5.64 l 193.48,-314.65 c 1.25,-1.88 1.25,-3.76 0,-5.63 L 1969.06,711.773 c -1.88,-3.14 -2.21,-5.796 -0.94,-7.984 1.24,-2.203 3.75,-3.289 7.51,-3.289 z m 1021.91,0 h 77.02 c 5.64,0 8.45,2.188 8.45,6.574 l -0.94,3.758 -207.57,639.638 c -1.88,5.01 -5.64,7.51 -11.28,7.51 h -93.92 c -5.64,0 -9.39,-2.5 -11.27,-7.51 l -205.7,-639.638 c -1.88,-6.898 0.61,-10.332 7.51,-10.332 h 76.08 c 5.64,0 9.4,2.496 11.27,7.516 l 33.82,109.894 c 0.61,1.875 1.88,2.817 3.75,2.817 h 263.94 c 1.88,0 3.12,-0.942 3.75,-2.817 l 33.82,-109.894 c 1.88,-5.02 5.63,-7.516 11.27,-7.516 z m -293.05,196.309 108.95,348.461 c 0.62,1.25 1.56,1.88 2.82,1.88 1.25,0 2.19,-0.63 2.82,-1.88 l 108.95,-348.461 c 0.62,-1.262 0.47,-2.348 -0.47,-3.289 -0.93,-0.942 -2.04,-1.411 -3.28,-1.411 h -216.03 c -1.27,0 -2.35,0.469 -3.29,1.411 -0.94,0.941 -1.1,2.027 -0.47,3.289 z M 3218.26,700.5 h 71.38 c 6.25,0 9.39,3.129 9.39,9.395 v 638.695 c 0,6.26 -3.14,9.39 -9.39,9.39 h -71.38 c -6.27,0 -9.4,-3.13 -9.4,-9.39 V 709.895 c 0,-6.266 3.13,-9.395 9.4,-9.395 v 0"
           style="fill:#1b3256;fill-opacity:1;fill-rule:nonzero;stroke:none"
           id="path30" /><path
           d="m 2077.04,201.449 c 37.8,0 67.49,8.789 89.07,26.371 21.58,17.578 32.37,41.391 32.37,71.43 0,19.461 -4.86,35.762 -14.55,48.898 -9.71,13.141 -21.92,23.723 -36.64,31.75 -14.72,8.012 -33.95,16.813 -57.7,26.372 -23.09,8.871 -40.23,16.128 -51.44,21.761 -11.21,5.629 -19.65,12.028 -25.34,19.199 -5.69,7.168 -8.53,16.391 -8.53,27.649 0,16.391 5.69,28.93 17.06,37.641 11.37,8.699 27.43,13.05 48.18,13.05 24.41,0 43.57,-5.879 57.45,-17.66 13.88,-11.781 20.83,-26.551 20.83,-44.289 v -7.68 c 0,-3.421 1.67,-5.121 5.01,-5.121 h 37.64 c 3.34,0 5.02,1.7 5.02,5.121 v 10.239 c 0,20.129 -5.11,37.89 -15.31,53.25 -10.21,15.359 -24.67,27.308 -43.4,35.84 -18.74,8.531 -40.48,12.804 -65.24,12.804 -35.12,0 -62.97,-8.367 -83.55,-25.094 -20.57,-16.73 -30.86,-39.769 -30.86,-69.121 0,-19.461 4.68,-35.589 14.05,-48.39 9.36,-12.797 21.16,-23.129 35.38,-30.981 14.21,-7.859 33.53,-16.558 57.96,-26.109 22.08,-8.879 38.89,-16.481 50.43,-22.789 11.54,-6.32 20.32,-13.231 26.34,-20.738 6.02,-7.512 9.04,-16.563 9.04,-27.141 0,-16.039 -5.86,-29.012 -17.57,-38.91 -11.71,-9.91 -29.1,-14.852 -52.19,-14.852 -25.76,0 -46,5.633 -60.71,16.903 -14.73,11.257 -22.08,25.597 -22.08,43.007 v 12.289 c 0,3.411 -1.68,5.122 -5.02,5.122 h -36.63 c -3.35,0 -5.02,-1.711 -5.02,-5.122 v -14.847 c 0,-20.153 5.1,-37.719 15.3,-52.742 10.21,-15.028 24.76,-26.629 43.66,-34.821 18.9,-8.187 41.23,-12.289 66.99,-12.289 z m 315.73,229.403 v 30.207 c 0,3.402 -1.67,5.121 -5.01,5.121 h -54.2 c -1.34,0 -2.01,0.679 -2.01,2.05 v 60.418 c 0,3.403 -1.67,5.122 -5.01,5.122 h -36.13 c -3.35,0 -5.02,-1.719 -5.02,-5.122 V 468.23 c 0,-1.371 -0.68,-2.05 -2.01,-2.05 h -30.61 c -3.35,0 -5.02,-1.719 -5.02,-5.121 v -30.207 c 0,-3.422 1.67,-5.122 5.02,-5.122 h 30.61 c 1.33,0 2.01,-0.691 2.01,-2.05 V 270.578 c 0,-25.269 6.44,-42.59 19.32,-51.976 12.87,-9.391 32.03,-14.082 57.45,-14.082 4.69,0 12.38,0.351 23.09,1.031 3.34,0 5.02,1.699 5.02,5.121 v 31.738 c 0,3.41 -1.68,5.121 -5.02,5.121 h -14.55 c -13.39,0 -23.26,3.16 -29.61,9.481 -6.36,6.308 -9.54,16.636 -9.54,30.976 V 423.68 c 0,1.359 0.67,2.05 2.01,2.05 h 54.2 c 3.34,0 5.01,1.7 5.01,5.122 z m 211.71,30.207 v -159.25 c 0,-17.411 -5.02,-31.321 -15.06,-41.727 -10.03,-10.422 -23.42,-15.621 -40.14,-15.621 -16.73,0 -29.69,5.121 -38.89,15.359 -9.2,10.239 -13.8,24.239 -13.8,41.989 v 159.25 c 0,3.402 -1.68,5.121 -5.02,5.121 h -37.63 c -3.35,0 -5.02,-1.719 -5.02,-5.121 v -174.61 c 0,-18.097 4.18,-33.461 12.54,-46.078 8.36,-12.641 19.49,-22.199 33.37,-28.68 13.88,-6.48 29.02,-9.73 45.42,-9.73 27.76,0 48.34,9.391 61.72,28.168 0.67,0.68 1.25,0.93 1.76,0.762 0.5,-0.172 0.75,-0.602 0.75,-1.282 v -18.937 c 0,-3.422 1.67,-5.121 5.02,-5.121 h 37.63 c 3.34,0 5.02,1.699 5.02,5.121 v 250.387 c 0,3.402 -1.68,5.121 -5.02,5.121 h -37.63 c -3.35,0 -5.02,-1.719 -5.02,-5.121 z m 278.55,97.8 V 444.672 c 0,-0.692 -0.25,-1.203 -0.76,-1.543 -0.5,-0.34 -1.09,-0.168 -1.75,0.519 -7.37,8.532 -16.15,15.102 -26.35,19.711 -10.21,4.61 -20.99,6.911 -32.36,6.911 -25.09,0 -45.67,-6.321 -61.73,-18.938 -16.05,-12.641 -27.59,-30.211 -34.62,-52.742 -5.35,-17.41 -8.03,-38.07 -8.03,-61.961 0,-25.598 3.18,-47.449 9.54,-65.539 7.35,-22.199 18.98,-39.352 34.87,-51.461 15.89,-12.117 35.88,-18.18 59.97,-18.18 11.7,0 22.58,2.391 32.61,7.172 10.04,4.777 18.73,11.43 26.1,19.969 0.66,0.68 1.25,0.851 1.75,0.512 0.51,-0.34 0.76,-0.852 0.76,-1.532 v -16.898 c 0,-3.422 1.67,-5.121 5.01,-5.121 h 38.14 c 3.34,0 5.02,1.699 5.02,5.121 v 348.187 c 0,3.407 -1.68,5.118 -5.02,5.118 h -38.14 c -3.34,0 -5.01,-1.711 -5.01,-5.118 z m -12.55,-287.257 c -10.03,-18.43 -24.76,-27.653 -44.16,-27.653 -22.08,0 -37.97,9.391 -47.67,28.16 -8.36,16.039 -12.54,37.211 -12.54,63.5 0,27.981 5.34,50.512 16.05,67.59 9.7,16.383 24.59,24.571 44.66,24.571 18.74,0 32.95,-8.7 42.66,-26.11 8.36,-15.031 12.54,-36.871 12.54,-65.539 0,-28.68 -3.85,-50.18 -11.54,-64.519 z m 162.23,235.539 c 9.36,0 17.06,3.07 23.08,9.218 6.02,6.141 9.04,13.993 9.04,23.551 0,9.551 -3.02,17.41 -9.04,23.555 -6.02,6.144 -13.72,9.219 -23.08,9.219 -9.37,0 -17.06,-3.075 -23.08,-9.219 -6.02,-6.145 -9.04,-14.004 -9.04,-23.555 0,-9.558 3.02,-17.41 9.04,-23.551 6.02,-6.148 13.71,-9.218 23.08,-9.218 z m -20.07,-301.082 h 38.13 c 3.35,0 5.02,1.703 5.02,5.121 v 249.879 c 0,3.402 -1.67,5.121 -5.02,5.121 h -38.13 c -3.35,0 -5.02,-1.719 -5.02,-5.121 V 211.18 c 0,-3.418 1.67,-5.121 5.02,-5.121 z m 222.19,-4.61 c 24.42,0 45.66,6.403 63.73,19.199 18.06,12.801 30.77,30.641 38.14,53.512 6.02,18.09 9.03,39.078 9.03,62.981 0,23.558 -3.01,44.039 -9.03,61.449 -7.7,22.18 -20.5,39.68 -38.39,52.48 -17.9,12.801 -38.89,19.2 -62.98,19.2 -25.42,0 -47.34,-6.399 -65.73,-19.2 -18.41,-12.8 -31.29,-30.461 -38.64,-52.988 -5.69,-16.73 -8.53,-37.223 -8.53,-61.453 0,-23.219 3.01,-44.039 9.03,-62.469 7.35,-22.871 20.24,-40.711 38.64,-53.512 18.39,-12.796 39.97,-19.199 64.73,-19.199 z m 0,42.5 c -14.39,0 -26.68,3.84 -36.88,11.52 -10.21,7.679 -17.31,18.511 -21.33,32.519 -3.68,12.293 -5.52,28.332 -5.52,48.133 0,19.789 1.84,35.668 5.52,47.617 4.35,13.992 11.54,24.832 21.58,32.512 10.04,7.68 21.91,11.52 35.63,11.52 14.38,0 26.59,-3.84 36.63,-11.52 10.03,-7.68 17.22,-18.52 21.58,-32.512 3.34,-12.636 5.01,-28.508 5.01,-47.617 0,-19.121 -1.84,-35.16 -5.52,-48.133 -4.35,-14.008 -11.54,-24.84 -21.57,-32.519 -10.04,-7.68 -21.75,-11.52 -35.13,-11.52 v 0"
           style="fill:#1b3256;fill-opacity:1;fill-rule:nonzero;stroke:none"
           id="path32" /></g></g></g></svg>
