<?xml version="1.0" encoding="UTF-8" standalone="no"?>
<svg
   xmlns:dc="http://purl.org/dc/elements/1.1/"
   xmlns:cc="http://creativecommons.org/ns#"
   xmlns:rdf="http://www.w3.org/1999/02/22-rdf-syntax-ns#"
   xmlns:svg="http://www.w3.org/2000/svg"
   xmlns="http://www.w3.org/2000/svg"
   xmlns:sodipodi="http://sodipodi.sourceforge.net/DTD/sodipodi-0.dtd"
   xmlns:inkscape="http://www.inkscape.org/namespaces/inkscape"
   width="140mm"
   height="32.450001mm"
   viewBox="0 0 140 32.450001"
   version="1.1"
   id="svg1102"
   inkscape:version="1.0.2-2 (e86c870879, 2021-01-15)"
   sodipodi:docname="logo.svg">
  <defs
     id="defs1096">
    <clipPath
       id="clip0">
      <rect
         x="688"
         y="189"
         width="158"
         height="57"
         id="rect1665" />
    </clipPath>
  </defs>
  <sodipodi:namedview
     id="base"
     pagecolor="#ffffff"
     bordercolor="#666666"
     borderopacity="1.0"
     inkscape:pageopacity="0.0"
     inkscape:pageshadow="2"
     inkscape:zoom="0.7"
     inkscape:cx="242.73849"
     inkscape:cy="400.58469"
     inkscape:document-units="mm"
     inkscape:current-layer="layer1"
     inkscape:document-rotation="0"
     showgrid="false"
     inkscape:window-width="1920"
     inkscape:window-height="1017"
     inkscape:window-x="-8"
     inkscape:window-y="-8"
     inkscape:window-maximized="1" />
  <metadata
     id="metadata1099">
    <rdf:RDF>
      <cc:Work
         rdf:about="">
        <dc:format>image/svg+xml</dc:format>
        <dc:type
           rdf:resource="http://purl.org/dc/dcmitype/StillImage" />
        <dc:title></dc:title>
      </cc:Work>
    </rdf:RDF>
  </metadata>
  <g
     inkscape:label="Ebene 1"
     inkscape:groupmode="layer"
     id="layer1">
    <g
       id="g1767"
       transform="matrix(3.5041978,0,0,3.5041978,-80.993367,-105.62914)">
      <path
         d="m 46.264282,35.038393 h 7.740121"
         stroke="#a5a5a5"
         stroke-width="0.79375"
         stroke-miterlimit="8"
         fill="none"
         fill-rule="evenodd"
         id="path1670" />
      <path
         d="m 23.113241,34.77381 c 0,-2.557198 2.07301,-4.630208 4.630208,-4.630208 2.557198,0 4.630209,2.07301 4.630209,4.630208 0,2.557198 -2.073011,4.630208 -4.630209,4.630208 -2.557198,0 -4.630208,-2.07301 -4.630208,-4.630208 z"
         fill="#ffffff"
         fill-rule="evenodd"
         id="path1672"
         style="stroke-width:0.264583" />
      <path
         d="M 32.505949,35.038393 H 40.24607"
         stroke="#a5a5a5"
         stroke-width="0.79375"
         stroke-miterlimit="8"
         fill="none"
         fill-rule="evenodd"
         id="path1674" />
      <path
         d="m 38.459074,31.686916 c 0,-0.852223 0.691092,-1.543314 1.543315,-1.543314 h 6.173787 c 0.852223,0 1.543315,0.691091 1.543315,1.543314 v 6.173788 c 0,0.852223 -0.691092,1.543314 -1.543315,1.543314 h -6.173787 c -0.852223,0 -1.543315,-0.691091 -1.543315,-1.543314 z"
         fill="#a5a5a5"
         fill-rule="evenodd"
         id="path1676"
         style="stroke-width:0.264583" />
      <path
         d="m 53.804907,34.77381 c 0,-2.557198 2.073011,-4.630208 4.630209,-4.630208 2.557197,0 4.630208,2.07301 4.630208,4.630208 0,2.557198 -2.073011,4.630208 -4.630208,4.630208 -2.557198,0 -4.630209,-2.07301 -4.630209,-4.630208 z"
         fill="#ffffff"
         fill-rule="evenodd"
         id="path1680"
         style="stroke-width:0.264583" />
      <g
         id="g1750"
         style="fill:#20368f;fill-opacity:1"
         transform="translate(-0.06681738)">
        <text
           fill="#203864"
           font-family="Calibri, Calibri_MSFontService, sans-serif"
           font-weight="400"
           font-size="7.14375px"
           id="text1678"
           x="41.279797"
           y="37.287354"
           style="fill:#20368f;fill-opacity:1;stroke-width:0.264583">X</text>
        <text
           fill="#203864"
           font-family="Calibri, Calibri_MSFontService, sans-serif"
           font-weight="400"
           font-size="6.35px"
           id="text1682"
           x="55.828705"
           y="36.758186"
           style="fill:#20368f;fill-opacity:1;stroke-width:0.264583">AI</text>
        <g
           id="g1739"
           style="fill:#20368f;fill-opacity:1">
          <path
             d="m 24.700741,33.054018 c 0,-0.438414 0.414602,-0.79375 0.926042,-0.79375 0.511439,0 0.926041,0.355336 0.926041,0.79375 0,0.438415 -0.414602,0.79375 -0.926041,0.79375 -0.51144,0 -0.926042,-0.355335 -0.926042,-0.79375 z"
             fill="#203864"
             fill-rule="evenodd"
             id="path1684"
             style="fill:#20368f;fill-opacity:1;stroke-width:0.264583" />
          <path
             d="m 29.198658,33.054018 c 0,-0.438414 0.355335,-0.79375 0.79375,-0.79375 0.438414,0 0.79375,0.355336 0.79375,0.79375 0,0.438415 -0.355336,0.79375 -0.79375,0.79375 -0.438415,0 -0.79375,-0.355335 -0.79375,-0.79375 z"
             fill="#203864"
             fill-rule="evenodd"
             id="path1686"
             style="fill:#20368f;fill-opacity:1;stroke-width:0.264583" />
          <path
             d="m 26.817408,34.376935 c 0,-0.438415 0.414602,-0.79375 0.926041,-0.79375 0.51144,0 0.926042,0.355335 0.926042,0.79375 0,0.438415 -0.414602,0.79375 -0.926042,0.79375 -0.511439,0 -0.926041,-0.355335 -0.926041,-0.79375 z"
             fill="#203864"
             fill-rule="evenodd"
             id="path1688"
             style="fill:#20368f;fill-opacity:1;stroke-width:0.264583" />
          <path
             d="m 23.906991,36.082439 c 0.0069,-1.095904 0.782373,-1.978025 1.732227,-1.970087 0.944827,0.0079 1.707356,0.894027 1.707356,1.984375 z"
             fill="#203864"
             fill-rule="evenodd"
             id="path1690"
             style="fill:#20368f;fill-opacity:1;stroke-width:0.264583" />
          <path
             d="m 26.023658,37.405356 c 0.0069,-1.095904 0.782373,-1.978025 1.732227,-1.970088 0.944827,0.0079 1.707356,0.894027 1.707356,1.984375 z"
             fill="#203864"
             fill-rule="evenodd"
             id="path1692"
             style="fill:#20368f;fill-opacity:1;stroke-width:0.264583" />
          <path
             d="m 28.404908,36.083497 c 0.0058,-1.095904 0.721254,-1.978289 1.598083,-1.971145 0.872596,0.0074 1.576917,0.893498 1.576917,1.984375 z"
             fill="#203864"
             fill-rule="evenodd"
             id="path1694"
             style="fill:#20368f;fill-opacity:1;stroke-width:0.264583" />
        </g>
      </g>
    </g>
  </g>
</svg>
