<?xml version="1.0" encoding="UTF-8" standalone="no"?>
<!-- Created with Inkscape (http://www.inkscape.org/) -->

<!--
Creative Commons Attribution-Share Alike 3.0 Unported

Font Awesome by Dave Gandy - https://fortawesome.github.com/Font-Awesome

https://commons.wikimedia.org/wiki/File:Eye_open_font_awesome.svg
-->

<svg
   xmlns:dc="http://purl.org/dc/elements/1.1/"
   xmlns:cc="http://creativecommons.org/ns#"
   xmlns:rdf="http://www.w3.org/1999/02/22-rdf-syntax-ns#"
   xmlns:svg="http://www.w3.org/2000/svg"
   xmlns="http://www.w3.org/2000/svg"
   xmlns:sodipodi="http://sodipodi.sourceforge.net/DTD/sodipodi-0.dtd"
   xmlns:inkscape="http://www.inkscape.org/namespaces/inkscape"
   width="330"
   height="200"
   viewBox="0 0 87.312498 52.916668"
   version="1.1"
   id="svg4832"
   inkscape:version="0.92.4 (5da689c313, 2019-01-14)"
   sodipodi:docname="inspection-eye.svg">
  <defs
     id="defs4826" />
  <sodipodi:namedview
     id="base"
     pagecolor="#ffffff"
     bordercolor="#666666"
     borderopacity="1.0"
     inkscape:pageopacity="0.0"
     inkscape:pageshadow="2"
     inkscape:zoom="1.979899"
     inkscape:cx="95.9341"
     inkscape:cy="189.37343"
     inkscape:document-units="mm"
     inkscape:current-layer="g4"
     showgrid="false"
     units="px"
     inkscape:window-width="3840"
     inkscape:window-height="2066"
     inkscape:window-x="3829"
     inkscape:window-y="-11"
     inkscape:window-maximized="1" />
  <metadata
     id="metadata4829">
    <rdf:RDF>
      <cc:Work
         rdf:about="">
        <dc:format>image/svg+xml</dc:format>
        <dc:type
           rdf:resource="http://purl.org/dc/dcmitype/StillImage" />
        <dc:title />
      </cc:Work>
    </rdf:RDF>
  </metadata>
  <g
     inkscape:label="Ebene 1"
     inkscape:groupmode="layer"
     id="layer1"
     transform="translate(0,-244.08331)">
    <g
       id="g4"
       transform="matrix(0.0437035,0,0,-0.0437035,4.497914,295.71486)">
      <path
         style="fill:#d3e3fc;fill-opacity:1;stroke-width:0.80000001"
         inkscape:connector-curvature="0"
         id="path6"
         d="m 1510.4,576.00002 q -121.6,188.8 -304.8,282.4 48.8,-83.2 48.8,-180 0,-148 -105.2,-253.2 -105.2,-105.2 -253.2,-105.2 -148,0 -253.2,105.2 -105.2,105.2 -105.2,253.2 0,96.8 48.8,180 -183.2,-93.6 -304.8,-282.4 106.4,-164 266.8,-261.2 160.4,-97.2 347.6,-97.2 187.2,0 347.6,97.2 160.4,97.2 266.8,261.2 z m -576,307.2 q 0,16 -11.2,27.2 -11.2,11.2 -27.2,11.2 -100,0 -171.6,-71.6 -71.6,-71.6 -71.6,-171.6 0,-16 11.2,-27.2 11.2,-11.2 27.2,-11.2 16,0 27.2,11.2 11.2,11.2 11.2,27.2 0,68.8 48.8,117.6 48.8,48.8 117.6,48.8 16,0 27.2,11.2 11.2,11.2 11.2,27.2 z m 678.4,-307.2 q 0,-27.2 -16,-55.2 -112,-184 -301.2,-294.8 -189.2,-110.8 -399.6,-110.8 -210.4,0 -399.6,111.2 -189.2,111.2 -301.2,294.4 -16,28 -16,55.2 0,27.2 16,55.2 112,183.2 301.2,294.4 Q 685.6,1036.8 896,1036.8 q 210.4,0 399.6,-111.19998 189.2,-111.2 301.2,-294.4 16,-28 16,-55.2 z" />
    </g>
  </g>
</svg>
