<?xml version="1.0" encoding="UTF-8" standalone="no"?>
<svg
   version="1.1"
   id="svg2"
   xml:space="preserve"
   width="150"
   height="150"
   viewBox="0 0 150 150.00001"
   xmlns="http://www.w3.org/2000/svg"
   xmlns:svg="http://www.w3.org/2000/svg"
   xmlns:rdf="http://www.w3.org/1999/02/22-rdf-syntax-ns#"
   xmlns:cc="http://creativecommons.org/ns#"
   xmlns:dc="http://purl.org/dc/elements/1.1/"><metadata
     id="metadata8"><rdf:RDF><cc:Work
         rdf:about=""><dc:format>image/svg+xml</dc:format><dc:type
           rdf:resource="http://purl.org/dc/dcmitype/StillImage" /></cc:Work></rdf:RDF></metadata><defs
     id="defs6"><clipPath
       clipPathUnits="userSpaceOnUse"
       id="clipPath26"><path
         d="m 368.75,1019.64 c -13.934,0.02 -27.812,-0.4 -39.562,-8.26 l -0.364,-0.05 c 1.489,-2.24 3.449,-5.03 5.586,-8.53 L 575.648,608.109 c 11.836,-19.371 11.852,-43.73 0.036,-63.117 l -246.532,-404.426 0.075,0.028 c 0,0 0.086,-0.047 0.246,-0.145 0.09,-0.051 0.187,-0.113 0.308,-0.179 0.121,-0.067 0.254,-0.149 0.418,-0.227 0.153,-0.086 0.328,-0.188 0.52,-0.297 0.187,-0.098 0.402,-0.207 0.625,-0.32 0.226,-0.121 0.469,-0.246 0.722,-0.371 0.262,-0.133 0.532,-0.27 0.817,-0.403 0.289,-0.132 0.597,-0.281 0.914,-0.429 0.16,-0.067 0.312,-0.145 0.48,-0.211 0.168,-0.082 0.336,-0.149 0.508,-0.231 0.176,-0.078 0.352,-0.144 0.524,-0.226 0.179,-0.082 0.363,-0.149 0.55,-0.227 0.18,-0.066 0.368,-0.148 0.563,-0.23 0.187,-0.078 0.383,-0.149 0.582,-0.227 0.195,-0.082 0.387,-0.16 0.598,-0.226 0.199,-0.082 0.406,-0.149 0.613,-0.227 0.211,-0.082 0.422,-0.148 0.637,-0.23 0.211,-0.067 0.421,-0.149 0.644,-0.227 0.215,-0.066 0.442,-0.137 0.664,-0.215 0.223,-0.066 0.449,-0.133 0.676,-0.215 0.227,-0.066 0.457,-0.148 0.687,-0.215 0.239,-0.066 0.473,-0.132 0.711,-0.199 0.258,-0.082 0.512,-0.164 0.774,-0.242 0.254,-0.066 0.515,-0.148 0.769,-0.227 0.262,-0.07 0.524,-0.136 0.782,-0.203 0.257,-0.066 0.515,-0.144 0.777,-0.199 0.258,-0.066 0.512,-0.137 0.766,-0.187 0.261,-0.055 0.515,-0.121 0.769,-0.176 0.254,-0.055 0.512,-0.102 0.758,-0.164 0.254,-0.047 0.508,-0.098 0.758,-0.149 0.246,-0.05 0.496,-0.09 0.742,-0.129 0.242,-0.05 0.488,-0.089 0.73,-0.132 0.243,-0.039 0.485,-0.079 0.715,-0.118 0.239,-0.043 0.473,-0.07 0.703,-0.113 0.239,-0.027 0.465,-0.066 0.692,-0.09 0.222,-0.027 0.441,-0.058 0.664,-0.078 0.222,-0.031 0.433,-0.058 0.648,-0.09 0.215,-0.019 0.418,-0.05 0.625,-0.058 0.407,-0.043 0.797,-0.082 1.172,-0.121 0.375,-0.032 0.731,-0.063 1.067,-0.082 0.332,-0.028 0.64,-0.059 0.937,-0.071 0.285,-0.027 0.555,-0.039 0.797,-0.047 0.238,0 0.461,-0.019 0.648,-0.031 0.188,0 0.356,-0.012 0.485,-0.012 0.261,-0.019 0.398,-0.019 0.398,-0.019 l -0.152,-0.02 h 110.312 32.371 c 22.969,0 44.293,11.922 56.317,31.5 l 234.203,381.2 c 11.879,19.332 11.902,43.687 0.074,63.05 L 560.32,988.094 c -11.968,19.596 -33.277,31.546 -56.246,31.546 h -108.445 -17.25 c -3.199,-0.03 -6.414,0 -9.629,0 z"
         id="path24" /></clipPath></defs><g
     id="g10"
     transform="matrix(1.3333333,0,0,-1.3333333,11.496356,135.10419)"><g
       id="g12"
       transform="scale(0.1)"><g
         id="g1034"
         transform="translate(-23.691321,-43.859174)"><path
           d="M 766.184,478.4648 666.035,314.2818 c -4.922,-8.082 -4.922,-18.243 0,-26.325 L 791.234,82.566804 c 11.95,-19.61 33.254,-31.567 56.211,-31.567 H 881.949 990.4 c 11.46,0 20.76,9.293 20.76,20.758 0,3.813 -1.05,7.551 -3.03,10.809 L 766.184,478.4648"
           style="fill:#ffffff;fill-opacity:1;fill-rule:nonzero;stroke:none"
           id="path14" /><path
           d="M 229.043,905.2778 -2.367202,525.6448 c -11.8203,-19.383 -11.8047,-43.746 0.0313,-63.117 L 229,83.976804 337.313,261.6608 214.555,462.5278 c -11.844,19.383 -11.899,43.75 -0.145,63.183 l 122.656,202.821 -108.023,176.746"
           style="fill:#EBEBEB;fill-opacity:1;fill-rule:nonzero;stroke:none"
           id="path16" /><path
           d="m 293.75,938.2808 c -13.934,0.02 -27.812,-0.4 -39.562,-8.26 l -0.364,-0.05 c 1.489,-2.24 3.449,-5.03 5.586,-8.53 l 241.238,-394.691 c 11.836,-19.371 11.852,-43.73 0.036,-63.117 L 254.152,59.206804 l 0.075,0.028 c 0,0 0.086,-0.047 0.246,-0.145 0.09,-0.051 0.187,-0.113 0.308,-0.179 0.121,-0.067 0.254,-0.149 0.418,-0.227 0.153,-0.086 0.328,-0.188 0.52,-0.297 0.187,-0.098 0.402,-0.207 0.625,-0.32 0.226,-0.121 0.469,-0.246 0.722,-0.371 0.262,-0.133 0.532,-0.27 0.817,-0.403 0.289,-0.132 0.597,-0.281 0.914,-0.429 0.16,-0.067 0.312,-0.145 0.48,-0.211 0.168,-0.082 0.336,-0.149 0.508,-0.231 0.176,-0.078 0.352,-0.144 0.524,-0.226 0.179,-0.082 0.363,-0.149 0.55,-0.227 0.18,-0.066 0.368,-0.148 0.563,-0.23 0.187,-0.078 0.383,-0.149 0.582,-0.227 0.195,-0.082 0.387,-0.16 0.598,-0.226 0.199,-0.082 0.406,-0.149 0.613,-0.227 0.211,-0.082 0.422,-0.148 0.637,-0.23 0.211,-0.067 0.421,-0.149 0.644,-0.227 0.215,-0.066 0.442,-0.137 0.664,-0.215 0.223,-0.066 0.449,-0.133 0.676,-0.215 0.227,-0.066 0.457,-0.148 0.687,-0.215 0.239,-0.066 0.473,-0.132 0.711,-0.199 0.258,-0.082 0.512,-0.164 0.774,-0.242 0.254,-0.066 0.515,-0.148 0.769,-0.227 0.262,-0.07 0.524,-0.136 0.782,-0.203 0.257,-0.066 0.515,-0.144 0.777,-0.199 0.258,-0.066 0.512,-0.137 0.766,-0.187 0.261,-0.055 0.515,-0.121 0.769,-0.176 0.254,-0.055 0.512,-0.102 0.758,-0.164 0.254,-0.047 0.508,-0.098 0.758,-0.149 0.246,-0.05 0.496,-0.09 0.742,-0.129 0.242,-0.05 0.488,-0.089 0.73,-0.132 0.243,-0.039 0.485,-0.079 0.715,-0.118 0.239,-0.043 0.473,-0.07 0.703,-0.113 0.239,-0.027 0.465,-0.066 0.692,-0.09 0.222,-0.027 0.441,-0.058 0.664,-0.078 0.222,-0.031 0.433,-0.058 0.648,-0.09 0.215,-0.019 0.418,-0.05 0.625,-0.058 0.407,-0.043 0.797,-0.082 1.172,-0.121 0.375,-0.032 0.731,-0.063 1.067,-0.082 0.332,-0.028 0.64,-0.059 0.937,-0.071 0.285,-0.027 0.555,-0.039 0.797,-0.047 0.238,0 0.461,-0.019 0.648,-0.031 0.188,0 0.356,-0.012 0.485,-0.012 0.261,-0.019 0.398,-0.019 0.398,-0.019 l -0.152,-0.02 h 110.312 32.371 c 22.969,0 44.293,11.922 56.317,31.5 L 717.461,463.6998 c 11.879,19.332 11.902,43.687 0.074,63.05 L 485.32,906.7348 c -11.968,19.596 -33.277,31.546 -56.246,31.546 h -108.445 -17.25 c -3.199,-0.03 -6.414,0 -9.629,0 v 0"
           style="fill:#ffffff;fill-opacity:1;fill-rule:nonzero;stroke:none"
           id="path18" /><path
           d="m 766.184,510.8128 -100.149,164.183 c -4.922,8.086 -4.922,18.243 0,26.325 l 125.199,205.39 c 11.95,19.61 33.254,31.57 56.211,31.57 H 881.949 990.4 c 11.46,0 20.76,-9.29 20.76,-20.761 0,-3.813 -1.05,-7.551 -3.03,-10.809 L 766.184,510.8128"
           style="fill:#ffffff;fill-opacity:1;fill-rule:nonzero;stroke:none"
           id="path30" /></g></g></g></svg>
